<svg height="4254" width="720" xmlns="http://www.w3.org/2000/svg">
<rect height="4254" fill="#555" width="720"></rect>
<text fill="#7f7" font-family="Courier New" font-size="12" xml:space="preserve">
<tspan x="10" y="26"></tspan>
<tspan x="10" y="42">&gt; npmdoc-ng-annotate@0.0.1 test /home/travis/build/npmdoc/node-npmdoc-ng-annotate</tspan>
<tspan x="10" y="58">&gt; (set -e; export PORT=$(utility2 shServerPortRandom); utility2 test test.js)</tspan>
<tspan x="10" y="74"></tspan>
<tspan x="10" y="90"></tspan>
<tspan x="10" y="106">[MODE_BUILD=npmTest] - 2017-04-07T07:02:38Z - npm-testing /home/travis/build/npmdoc/node-npmdoc-\</tspan>
<tspan x="10" y="122">ng-annotate</tspan>
<tspan x="10" y="138"></tspan>
<tspan x="10" y="154"></tspan>
<tspan x="10" y="170">covering $ /home/travis/.nvm/versions/node/v6.10.2/bin/node /home/travis/build/npmdoc/node-npmdo\</tspan>
<tspan x="10" y="186">c-ng-annotate/test.js</tspan>
<tspan x="10" y="202">merging file:///home/travis/build/npmdoc/node-npmdoc-ng-annotate/tmp/build/test-report.json to t\</tspan>
<tspan x="10" y="218">est-report</tspan>
<tspan x="10" y="234">&gt; server listening on http-port 40226</tspan>
<tspan x="10" y="250">ng-annotate v1.2.1</tspan>
<tspan x="10" y="266"></tspan>
<tspan x="10" y="282">Usage: ng-annotate OPTIONS &lt;file&gt;</tspan>
<tspan x="10" y="298"></tspan>
<tspan x="10" y="314">provide - instead of &lt;file&gt; to read from stdin</tspan>
<tspan x="10" y="330">use -a and -r together to remove and add (rebuild) annotations in one go</tspan>
<tspan x="10" y="346"></tspan>
<tspan x="10" y="362">Options:</tspan>
<tspan x="10" y="378">  -a, --add        add dependency injection annotations where non-existing                      \</tspan>
<tspan x="10" y="394">       </tspan>
<tspan x="10" y="410">  -r, --remove     remove all existing dependency injection annotations                         \</tspan>
<tspan x="10" y="426">       </tspan>
<tspan x="10" y="442">  -o               write output to &lt;file&gt;. output is written to stdout by default               \</tspan>
<tspan x="10" y="458">       </tspan>
<tspan x="10" y="474">  --sourcemap      generate an inline sourcemap                                                 \</tspan>
<tspan x="10" y="490">       </tspan>
<tspan x="10" y="506">  --sourceroot     set the sourceRoot property of the generated sourcemap                       \</tspan>
<tspan x="10" y="522">       </tspan>
<tspan x="10" y="538">  --single_quotes  use single quotes (') instead of double quotes (")                           \</tspan>
<tspan x="10" y="554">       </tspan>
<tspan x="10" y="570">  --regexp         detect short form myMod.controller(...) iff myMod matches regexp             \</tspan>
<tspan x="10" y="586">       </tspan>
<tspan x="10" y="602">  --rename         rename declarations and annotated references</tspan>
<tspan x="10" y="618">oldname1 newname1 oldname2 newname2 ...  [default: ""]</tspan>
<tspan x="10" y="634">  --plugin         use plugin with path (experimental)                                          \</tspan>
<tspan x="10" y="650">       </tspan>
<tspan x="10" y="666">  --enable         enable optional with name                                                    \</tspan>
<tspan x="10" y="682">       </tspan>
<tspan x="10" y="698">  --list           list all optional names                                                      \</tspan>
<tspan x="10" y="714">       </tspan>
<tspan x="10" y="730">  --stats          print statistics on stderr (experimental)                                    \</tspan>
<tspan x="10" y="746">       </tspan>
<tspan x="10" y="762"></tspan>
<tspan x="10" y="778">error: no input file provided</tspan>
<tspan x="10" y="794">ng-annotate v1.2.1</tspan>
<tspan x="10" y="810"></tspan>
<tspan x="10" y="826">Usage: ng-annotate OPTIONS &lt;file&gt;</tspan>
<tspan x="10" y="842"></tspan>
<tspan x="10" y="858">provide - instead of &lt;file&gt; to read from stdin</tspan>
<tspan x="10" y="874">use -a and -r together to remove and add (rebuild) annotations in one go</tspan>
<tspan x="10" y="890"></tspan>
<tspan x="10" y="906">Options:</tspan>
<tspan x="10" y="922">  -a, --add        add dependency injection annotations where non-existing                      \</tspan>
<tspan x="10" y="938">       </tspan>
<tspan x="10" y="954">  -r, --remove     remove all existing dependency injection annotations                         \</tspan>
<tspan x="10" y="970">       </tspan>
<tspan x="10" y="986">  -o               write output to &lt;file&gt;. output is written to stdout by default               \</tspan>
<tspan x="10" y="1002">       </tspan>
<tspan x="10" y="1018">  --sourcemap      generate an inline sourcemap                                                 \</tspan>
<tspan x="10" y="1034">       </tspan>
<tspan x="10" y="1050">  --sourceroot     set the sourceRoot property of the generated sourcemap                       \</tspan>
<tspan x="10" y="1066">       </tspan>
<tspan x="10" y="1082">  --single_quotes  use single quotes (') instead of double quotes (")                           \</tspan>
<tspan x="10" y="1098">       </tspan>
<tspan x="10" y="1114">  --regexp         detect short form myMod.controller(...) iff myMod matches regexp             \</tspan>
<tspan x="10" y="1130">       </tspan>
<tspan x="10" y="1146">  --rename         rename declarations and annotated references</tspan>
<tspan x="10" y="1162">oldname1 newname1 oldname2 newname2 ...  [default: ""]</tspan>
<tspan x="10" y="1178">  --plugin         use plugin with path (experimental)                                          \</tspan>
<tspan x="10" y="1194">       </tspan>
<tspan x="10" y="1210">  --enable         enable optional with name                                                    \</tspan>
<tspan x="10" y="1226">       </tspan>
<tspan x="10" y="1242">  --list           list all optional names                                                      \</tspan>
<tspan x="10" y="1258">       </tspan>
<tspan x="10" y="1274">  --stats          print statistics on stderr (experimental)                                    \</tspan>
<tspan x="10" y="1290">       </tspan>
<tspan x="10" y="1306"></tspan>
<tspan x="10" y="1322">error: missing option --add and/or --remove</tspan>
<tspan x="10" y="1338">error: file not found undefined</tspan>
<tspan x="10" y="1354">undefinedcreated apidoc file:///home/travis/build/npmdoc/node-npmdoc-ng-annotate/tmp/build/apido\</tspan>
<tspan x="10" y="1370">c.html</tspan>
<tspan x="10" y="1386"></tspan>
<tspan x="10" y="1402"></tspan>
<tspan x="10" y="1418">browserTest - created electron entry-page /home/travis/build/npmdoc/node-npmdoc-ng-annotate/tmp/\</tspan>
<tspan x="10" y="1434">electron.15b4738d7900.374661bacf52c.html</tspan>
<tspan x="10" y="1450"></tspan>
<tspan x="10" y="1466">ng-annotate v1.2.1</tspan>
<tspan x="10" y="1482"></tspan>
<tspan x="10" y="1498">Usage: ng-annotate OPTIONS &lt;file&gt;</tspan>
<tspan x="10" y="1514"></tspan>
<tspan x="10" y="1530">provide - instead of &lt;file&gt; to read from stdin</tspan>
<tspan x="10" y="1546">use -a and -r together to remove and add (rebuild) annotations in one go</tspan>
<tspan x="10" y="1562"></tspan>
<tspan x="10" y="1578">Options:</tspan>
<tspan x="10" y="1594">  -a, --add, --add        add dependency injection annotations where non-existing               \</tspan>
<tspan x="10" y="1610">              </tspan>
<tspan x="10" y="1626">  -r, --remove, --remove  remove all existing dependency injection annotations                  \</tspan>
<tspan x="10" y="1642">              </tspan>
<tspan x="10" y="1658">  -o                      write output to &lt;file&gt;. output is written to stdout by default        \</tspan>
<tspan x="10" y="1674">              </tspan>
<tspan x="10" y="1690">  --sourcemap             generate an inline sourcemap                                          \</tspan>
<tspan x="10" y="1706">              </tspan>
<tspan x="10" y="1722">  --sourceroot            set the sourceRoot property of the generated sourcemap                \</tspan>
<tspan x="10" y="1738">              </tspan>
<tspan x="10" y="1754">  --single_quotes         use single quotes (') instead of double quotes (")                    \</tspan>
<tspan x="10" y="1770">              </tspan>
<tspan x="10" y="1786">  --regexp                detect short form myMod.controller(...) iff myMod matches regexp      \</tspan>
<tspan x="10" y="1802">              </tspan>
<tspan x="10" y="1818">  --rename                rename declarations and annotated references</tspan>
<tspan x="10" y="1834">oldname1 newname1 oldname2 newname2 ...  [default: ""]</tspan>
<tspan x="10" y="1850">  --plugin                use plugin with path (experimental)                                   \</tspan>
<tspan x="10" y="1866">              </tspan>
<tspan x="10" y="1882">  --enable                enable optional with name                                             \</tspan>
<tspan x="10" y="1898">              </tspan>
<tspan x="10" y="1914">  --list                  list all optional names                                               \</tspan>
<tspan x="10" y="1930">              </tspan>
<tspan x="10" y="1946">  --stats                 print statistics on stderr (experimental)                             \</tspan>
<tspan x="10" y="1962">              </tspan>
<tspan x="10" y="1978"></tspan>
<tspan x="10" y="1994">error: no input file provided</tspan>
<tspan x="10" y="2010">ng-annotate v1.2.1</tspan>
<tspan x="10" y="2026"></tspan>
<tspan x="10" y="2042">Usage: ng-annotate OPTIONS &lt;file&gt;</tspan>
<tspan x="10" y="2058"></tspan>
<tspan x="10" y="2074">provide - instead of &lt;file&gt; to read from stdin</tspan>
<tspan x="10" y="2090">use -a and -r together to remove and add (rebuild) annotations in one go</tspan>
<tspan x="10" y="2106"></tspan>
<tspan x="10" y="2122">Options:</tspan>
<tspan x="10" y="2138">  -a, --add, --add        add dependency injection annotations where non-existing               \</tspan>
<tspan x="10" y="2154">              </tspan>
<tspan x="10" y="2170">  -r, --remove, --remove  remove all existing dependency injection annotations                  \</tspan>
<tspan x="10" y="2186">              </tspan>
<tspan x="10" y="2202">  -o                      write output to &lt;file&gt;. output is written to stdout by default        \</tspan>
<tspan x="10" y="2218">              </tspan>
<tspan x="10" y="2234">  --sourcemap             generate an inline sourcemap                                          \</tspan>
<tspan x="10" y="2250">              </tspan>
<tspan x="10" y="2266">  --sourceroot            set the sourceRoot property of the generated sourcemap                \</tspan>
<tspan x="10" y="2282">              </tspan>
<tspan x="10" y="2298">  --single_quotes         use single quotes (') instead of double quotes (")                    \</tspan>
<tspan x="10" y="2314">              </tspan>
<tspan x="10" y="2330">  --regexp                detect short form myMod.controller(...) iff myMod matches regexp      \</tspan>
<tspan x="10" y="2346">              </tspan>
<tspan x="10" y="2362">  --rename                rename declarations and annotated references</tspan>
<tspan x="10" y="2378">oldname1 newname1 oldname2 newname2 ...  [default: ""]</tspan>
<tspan x="10" y="2394">  --plugin                use plugin with path (experimental)                                   \</tspan>
<tspan x="10" y="2410">              </tspan>
<tspan x="10" y="2426">  --enable                enable optional with name                                             \</tspan>
<tspan x="10" y="2442">              </tspan>
<tspan x="10" y="2458">  --list                  list all optional names                                               \</tspan>
<tspan x="10" y="2474">              </tspan>
<tspan x="10" y="2490">  --stats                 print statistics on stderr (experimental)                             \</tspan>
<tspan x="10" y="2506">              </tspan>
<tspan x="10" y="2522"></tspan>
<tspan x="10" y="2538">error: missing option --add and/or --remove</tspan>
<tspan x="10" y="2554">error: file not found undefined</tspan>
<tspan x="10" y="2570">undefined[node test-case 1 of 6 passed] - testCase_buildLib_default</tspan>
<tspan x="10" y="2586">[node test-case 2 of 6 passed] - testCase_buildReadme_default</tspan>
<tspan x="10" y="2602">[node test-case 3 of 6 passed] - testCase_buildTest_default</tspan>
<tspan x="10" y="2618"></tspan>
<tspan x="10" y="2634">browserTest - created electron entry-page /home/travis/build/npmdoc/node-npmdoc-ng-annotate/tmp/\</tspan>
<tspan x="10" y="2650">electron.15b4738d7f60.bf249cbce3c41.html</tspan>
<tspan x="10" y="2666"></tspan>
<tspan x="10" y="2682">Xlib:  extension "RANDR" missing on display ":99.0".</tspan>
<tspan x="10" y="2698">Xlib:  extension "RANDR" missing on display ":99.0".</tspan>
<tspan x="10" y="2714">merging file:///home/travis/build/npmdoc/node-npmdoc-ng-annotate/tmp/build/test-report.json to t\</tspan>
<tspan x="10" y="2730">est-report</tspan>
<tspan x="10" y="2746">&gt; server listening on http-port 46152</tspan>
<tspan x="10" y="2762">Xlib:  extension "RANDR" missing on display ":99.0".</tspan>
<tspan x="10" y="2778">[4953:0407/070240:WARNING:audio_manager.cc(314)] Multiple instances of AudioManager detected</tspan>
<tspan x="10" y="2794">[4953:0407/070240:WARNING:audio_manager.cc(275)] Multiple instances of AudioManager detected</tspan>
<tspan x="10" y="2810">merging file:///home/travis/build/npmdoc/node-npmdoc-ng-annotate/tmp/build/test-report.json to t\</tspan>
<tspan x="10" y="2826">est-report</tspan>
<tspan x="10" y="2842">[5000:0407/070240:ERROR:sandbox_linux.cc(343)] InitializeSandbox() called with multiple threads \</tspan>
<tspan x="10" y="2858">in process gpu-process. </tspan>
<tspan x="10" y="2874">Xlib:  extension "RANDR" missing on display ":99.0".</tspan>
<tspan x="10" y="2890">[4965:0407/070240:WARNING:audio_manager.cc(314)] Multiple instances of AudioManager detected</tspan>
<tspan x="10" y="2906">[4965:0407/070240:WARNING:audio_manager.cc(275)] Multiple instances of AudioManager detected</tspan>
<tspan x="10" y="2922">[4953:0407/070240:ERROR:browser_gpu_channel_host_factory.cc(131)] Failed to create channel.</tspan>
<tspan x="10" y="2938">[5025:0407/070240:ERROR:sandbox_linux.cc(343)] InitializeSandbox() called with multiple threads \</tspan>
<tspan x="10" y="2954">in process gpu-process. </tspan>
<tspan x="10" y="2970">[4965:0407/070240:ERROR:browser_gpu_channel_host_factory.cc(131)] Failed to create channel.</tspan>
<tspan x="10" y="2986"></tspan>
<tspan x="10" y="3002">browserTest - opened url /home/travis/build/npmdoc/node-npmdoc-ng-annotate/tmp/build/apidoc.html</tspan>
<tspan x="10" y="3018"></tspan>
<tspan x="10" y="3034"></tspan>
<tspan x="10" y="3050">browserTest - opened url http://127.0.0.1:40226?modeTest=1</tspan>
<tspan x="10" y="3066"></tspan>
<tspan x="10" y="3082">[4965:0407/070242:INFO:CONSOLE(250)] "----------|-----------|-----------|-----------|-----------\</tspan>
<tspan x="10" y="3098">|</tspan>
<tspan x="10" y="3114">File      |   % Stmts |% Branches |   % Funcs |   % Lines |</tspan>
<tspan x="10" y="3130">----------|-----------|-----------|-----------|-----------|</tspan>
<tspan x="10" y="3146">----------|-----------|-----------|-----------|-----------|</tspan>
<tspan x="10" y="3162">All files |       100 |       100 |       100 |       100 |</tspan>
<tspan x="10" y="3178">----------|-----------|-----------|-----------|-----------|</tspan>
<tspan x="10" y="3194">", source: file:///home/travis/build/npmdoc/node-npmdoc-ng-annotate/tmp/electron.15b4738d7f60.bf\</tspan>
<tspan x="10" y="3210">249cbce3c41.html (250)</tspan>
<tspan x="10" y="3226">[4965:0407/070242:INFO:CONSOLE(250)] "created coverage file:///tmp/build/coverage.html/index.htm\</tspan>
<tspan x="10" y="3242">l", source: file:///home/travis/build/npmdoc/node-npmdoc-ng-annotate/tmp/electron.15b4738d7f60.b\</tspan>
<tspan x="10" y="3258">f249cbce3c41.html (250)</tspan>
<tspan x="10" y="3274">[node test-case 4 of 6 passed] - testCase_buildApp_default</tspan>
<tspan x="10" y="3290"></tspan>
<tspan x="10" y="3306">browserTest - created screenCapture file:///home/travis/build/npmdoc/node-npmdoc-ng-annotate/tmp\</tspan>
<tspan x="10" y="3322">/build/screenCapture.npmTest.browser._2Fhome_2Ftravis_2Fbuild_2Fnpmdoc_2Fnode-npmdoc-ng-annotate\</tspan>
<tspan x="10" y="3338">_2Ftmp_2Fbuild_2Fapidoc.html.png</tspan>
<tspan x="10" y="3354"></tspan>
<tspan x="10" y="3370">browserTest - created screenCapture file:///home/travis/build/npmdoc/node-npmdoc-ng-annotate/tmp\</tspan>
<tspan x="10" y="3386">/build/screenCapture.npmTest.browser._2Fhome_2Ftravis_2Fbuild_2Fnpmdoc_2Fnode-npmdoc-ng-annotate\</tspan>
<tspan x="10" y="3402">_2Ftmp_2Fbuild_2Fapidoc.html.html</tspan>
<tspan x="10" y="3418"></tspan>
<tspan x="10" y="3434">browserTest - exit-code 0 - /home/travis/build/npmdoc/node-npmdoc-ng-annotate/tmp/build/apidoc.h\</tspan>
<tspan x="10" y="3450">tml</tspan>
<tspan x="10" y="3466"></tspan>
<tspan x="10" y="3482">[node test-case 5 of 6 passed] - testCase_buildApidoc_default</tspan>
<tspan x="10" y="3498"></tspan>
<tspan x="10" y="3514">browserTest - created screenCapture file:///home/travis/build/npmdoc/node-npmdoc-ng-annotate/tmp\</tspan>
<tspan x="10" y="3530">/build/screenCapture.npmTest.browser..png</tspan>
<tspan x="10" y="3546"></tspan>
<tspan x="10" y="3562">browserTest - created screenCapture file:///home/travis/build/npmdoc/node-npmdoc-ng-annotate/tmp\</tspan>
<tspan x="10" y="3578">/build/screenCapture.npmTest.browser..html</tspan>
<tspan x="10" y="3594"></tspan>
<tspan x="10" y="3610">browserTest - exit-code 0 - http://127.0.0.1:40226?modeTest=1</tspan>
<tspan x="10" y="3626"></tspan>
<tspan x="10" y="3642"></tspan>
<tspan x="10" y="3658">browserTest - merged coverage from /home/travis/build/npmdoc/node-npmdoc-ng-annotate/tmp/coverag\</tspan>
<tspan x="10" y="3674">e.npmTest.browser.%2F.json</tspan>
<tspan x="10" y="3690"></tspan>
<tspan x="10" y="3706"></tspan>
<tspan x="10" y="3722">browserTest - merging test-report from /home/travis/build/npmdoc/node-npmdoc-ng-annotate/tmp/tes\</tspan>
<tspan x="10" y="3738">t-report.npmTest.browser.%2F.json</tspan>
<tspan x="10" y="3754"></tspan>
<tspan x="10" y="3770">[node test-case 6 of 6 passed] - testCase_webpage_default</tspan>
<tspan x="10" y="3786">--------------------------------|-----------|-----------|-----------|-----------|</tspan>
<tspan x="10" y="3802">File                            |   % Stmts |% Branches |   % Funcs |   % Lines |</tspan>
<tspan x="10" y="3818">--------------------------------|-----------|-----------|-----------|-----------|</tspan>
<tspan x="10" y="3834">   node-npmdoc-ng-annotate/     |       100 |       100 |       100 |       100 |</tspan>
<tspan x="10" y="3850">      example.js                |       100 |       100 |       100 |       100 |</tspan>
<tspan x="10" y="3866">      lib.npmdoc_ng_annotate.js |       100 |       100 |       100 |       100 |</tspan>
<tspan x="10" y="3882">      test.js                   |       100 |       100 |       100 |       100 |</tspan>
<tspan x="10" y="3898">--------------------------------|-----------|-----------|-----------|-----------|</tspan>
<tspan x="10" y="3914">All files                       |       100 |       100 |       100 |       100 |</tspan>
<tspan x="10" y="3930">--------------------------------|-----------|-----------|-----------|-----------|</tspan>
<tspan x="10" y="3946"></tspan>
<tspan x="10" y="3962">created coverage file:///home/travis/build/npmdoc/node-npmdoc-ng-annotate/tmp/build/coverage.htm\</tspan>
<tspan x="10" y="3978">l/index.html</tspan>
<tspan x="10" y="3994">merging file:///home/travis/build/npmdoc/node-npmdoc-ng-annotate/tmp/build/test-report.json to t\</tspan>
<tspan x="10" y="4010">est-report</tspan>
<tspan x="10" y="4026"></tspan>
<tspan x="10" y="4042">-------------------------------------------------------</tspan>
<tspan x="10" y="4058">| test-report - buildNpmdoc - node - linux v6.10.2 - 2017-04-07T07:02:16.042Z</tspan>
<tspan x="10" y="4074">|   37663 ms            0 failed        6 passed      |</tspan>
<tspan x="10" y="4090">-------------------------------------------------------</tspan>
<tspan x="10" y="4106"></tspan>
<tspan x="10" y="4122">created test-report file:///home/travis/build/npmdoc/node-npmdoc-ng-annotate/tmp/build/test-repo\</tspan>
<tspan x="10" y="4138">rt.html</tspan>
<tspan x="10" y="4154"></tspan>
<tspan x="10" y="4170"></tspan>
<tspan x="10" y="4186">npmTest - 0 failed tests</tspan>
<tspan x="10" y="4202"></tspan>
<tspan x="10" y="4218"></tspan>
<tspan x="10" y="4234">[MODE_BUILD=npmTest] - 2017-04-07T07:02:58Z - EXIT_CODE - 0</tspan>
</text>
</svg>
